<svg width="40" height="40" viewBox="0 0 40 40" fill="none" xmlns="http://www.w3.org/2000/svg">
<mask id="mask0_1_39" style="mask-type:alpha" maskUnits="userSpaceOnUse" x="0" y="0" width="40" height="40">
<rect width="40" height="40" fill="#D9D9D9"/>
</mask>
<g mask="url(#mask0_1_39)">
<path d="M20 6.66675C23.7222 6.66675 26.875 7.95842 29.4583 10.5417C32.0416 13.1251 33.3333 16.2779 33.3333 20.0001C33.3333 23.7223 32.0416 26.8751 29.4583 29.4584C26.875 32.0418 23.7222 33.3334 20 33.3334C16.2777 33.3334 13.125 32.0418 10.5416 29.4584C7.95829 26.8751 6.66663 23.7223 6.66663 20.0001C6.66663 16.2779 7.95829 13.1251 10.5416 10.5417C13.125 7.95842 16.2777 6.66675 20 6.66675ZM14.1666 16.6667C14.1666 17.139 14.3263 17.5348 14.6458 17.8542C14.9652 18.1737 15.3611 18.3334 15.8333 18.3334C16.3055 18.3334 16.7014 18.1737 17.0208 17.8542C17.3402 17.5348 17.5 17.139 17.5 16.6667C17.5 16.1945 17.3402 15.7987 17.0208 15.4792C16.7014 15.1598 16.3055 15.0001 15.8333 15.0001C15.3611 15.0001 14.9652 15.1598 14.6458 15.4792C14.3263 15.7987 14.1666 16.1945 14.1666 16.6667ZM22.5 16.6667C22.5 17.139 22.6597 17.5348 22.9791 17.8542C23.2986 18.1737 23.6944 18.3334 24.1666 18.3334C24.6388 18.3334 25.0347 18.1737 25.3541 17.8542C25.6736 17.5348 25.8333 17.139 25.8333 16.6667C25.8333 16.1945 25.6736 15.7987 25.3541 15.4792C25.0347 15.1598 24.6388 15.0001 24.1666 15.0001C23.6944 15.0001 23.2986 15.1598 22.9791 15.4792C22.6597 15.7987 22.5 16.1945 22.5 16.6667ZM1.66663 8.33342V5.00008C1.66663 4.08341 1.99301 3.29869 2.64579 2.64591C3.29857 1.99314 4.08329 1.66675 4.99996 1.66675H8.33329C8.80552 1.66675 9.20135 1.82647 9.52079 2.14591C9.84024 2.46536 9.99996 2.86119 9.99996 3.33341C9.99996 3.80564 9.84024 4.20147 9.52079 4.52091C9.20135 4.84036 8.80552 5.00008 8.33329 5.00008H4.99996V8.33342C4.99996 8.80564 4.84024 9.20147 4.52079 9.52092C4.20135 9.84036 3.80552 10.0001 3.33329 10.0001C2.86107 10.0001 2.46524 9.84036 2.14579 9.52092C1.82635 9.20147 1.66663 8.80564 1.66663 8.33342ZM8.33329 38.3334H4.99996C4.08329 38.3334 3.29857 38.007 2.64579 37.3543C1.99301 36.7015 1.66663 35.9167 1.66663 35.0001V31.6667C1.66663 31.1945 1.82635 30.7987 2.14579 30.4792C2.46524 30.1598 2.86107 30.0001 3.33329 30.0001C3.80552 30.0001 4.20135 30.1598 4.52079 30.4792C4.84024 30.7987 4.99996 31.1945 4.99996 31.6667V35.0001H8.33329C8.80552 35.0001 9.20135 35.1598 9.52079 35.4793C9.84024 35.7987 9.99996 36.1945 9.99996 36.6667C9.99996 37.139 9.84024 37.5348 9.52079 37.8542C9.20135 38.1737 8.80552 38.3334 8.33329 38.3334ZM35 38.3334H31.6666C31.1944 38.3334 30.7986 38.1737 30.4791 37.8542C30.1597 37.5348 30 37.139 30 36.6667C30 36.1945 30.1597 35.7987 30.4791 35.4793C30.7986 35.1598 31.1944 35.0001 31.6666 35.0001H35V31.6667C35 31.1945 35.1597 30.7987 35.4791 30.4792C35.7986 30.1598 36.1944 30.0001 36.6666 30.0001C37.1389 30.0001 37.5347 30.1598 37.8541 30.4792C38.1736 30.7987 38.3333 31.1945 38.3333 31.6667V35.0001C38.3333 35.9167 38.0069 36.7015 37.3541 37.3543C36.7014 38.007 35.9166 38.3334 35 38.3334ZM35 8.33342V5.00008H31.6666C31.1944 5.00008 30.7986 4.84036 30.4791 4.52091C30.1597 4.20147 30 3.80564 30 3.33341C30 2.86119 30.1597 2.46536 30.4791 2.14591C30.7986 1.82647 31.1944 1.66675 31.6666 1.66675H35C35.9166 1.66675 36.7014 1.99314 37.3541 2.64591C38.0069 3.29869 38.3333 4.08341 38.3333 5.00008V8.33342C38.3333 8.80564 38.1736 9.20147 37.8541 9.52092C37.5347 9.84036 37.1389 10.0001 36.6666 10.0001C36.1944 10.0001 35.7986 9.84036 35.4791 9.52092C35.1597 9.20147 35 8.80564 35 8.33342ZM20 25.8334C21.0555 25.8334 22.0347 25.5834 22.9375 25.0834C23.8402 24.5834 24.5694 23.9029 25.125 23.0417C25.2916 22.7362 25.2847 22.4306 25.1041 22.1251C24.9236 21.8195 24.6527 21.6667 24.2916 21.6667H15.7083C15.3472 21.6667 15.0763 21.8195 14.8958 22.1251C14.7152 22.4306 14.7083 22.7362 14.875 23.0417C15.4305 23.9029 16.1597 24.5834 17.0625 25.0834C17.9652 25.5834 18.9444 25.8334 20 25.8334Z" fill="#090914"/>
</g>
</svg>
