<svg width="40" height="40" viewBox="0 0 40 40" fill="none" xmlns="http://www.w3.org/2000/svg">
<mask id="mask0_1_59" style="mask-type:alpha" maskUnits="userSpaceOnUse" x="0" y="0" width="40" height="40">
<rect width="40" height="40" fill="#D9D9D9"/>
</mask>
<g mask="url(#mask0_1_59)">
<path d="M3.33333 35C2.41667 35 1.63194 34.6736 0.979167 34.0208C0.326389 33.3681 0 32.5833 0 31.6667V8.33333C0 7.41667 0.326389 6.63194 0.979167 5.97917C1.63194 5.32639 2.41667 5 3.33333 5H36.6667C37.5833 5 38.3681 5.32639 39.0208 5.97917C39.6736 6.63194 40 7.41667 40 8.33333V31.6667C40 32.5833 39.6736 33.3681 39.0208 34.0208C38.3681 34.6736 37.5833 35 36.6667 35H3.33333ZM15 23.3333C16.3889 23.3333 17.5694 22.8472 18.5417 21.875C19.5139 20.9028 20 19.7222 20 18.3333C20 16.9444 19.5139 15.7639 18.5417 14.7917C17.5694 13.8194 16.3889 13.3333 15 13.3333C13.6111 13.3333 12.4306 13.8194 11.4583 14.7917C10.4861 15.7639 10 16.9444 10 18.3333C10 19.7222 10.4861 20.9028 11.4583 21.875C12.4306 22.8472 13.6111 23.3333 15 23.3333ZM3.5 31.6667H26.5C25.3333 29.5833 23.7222 27.9514 21.6667 26.7708C19.6111 25.5903 17.3889 25 15 25C12.6111 25 10.3889 25.5903 8.33333 26.7708C6.27778 27.9514 4.66667 29.5833 3.5 31.6667ZM25 18.3333H33.3333C33.8056 18.3333 34.2014 18.1736 34.5208 17.8542C34.8403 17.5347 35 17.1389 35 16.6667V11.6667C35 11.1944 34.8403 10.7986 34.5208 10.4792C34.2014 10.1597 33.8056 10 33.3333 10H25C24.5278 10 24.1319 10.1597 23.8125 10.4792C23.4931 10.7986 23.3333 11.1944 23.3333 11.6667V16.6667C23.3333 17.1389 23.4931 17.5347 23.8125 17.8542C24.1319 18.1736 24.5278 18.3333 25 18.3333ZM29.1667 14.5833L32.25 12.4167C32.4722 12.25 32.7083 12.2292 32.9583 12.3542C33.2083 12.4792 33.3333 12.6806 33.3333 12.9583C33.3333 12.9861 33.2361 13.1806 33.0417 13.5417L30.125 15.5833C29.8194 15.8056 29.5 15.9167 29.1667 15.9167C28.8333 15.9167 28.5139 15.8056 28.2083 15.5833L25.2917 13.5417C25.2639 13.5139 25.1667 13.3194 25 12.9583C25 12.6806 25.125 12.4792 25.375 12.3542C25.625 12.2292 25.8611 12.25 26.0833 12.4167L29.1667 14.5833Z" fill="#090914"/>
</g>
</svg>
