<svg width="40" height="40" viewBox="0 0 40 40" fill="none" xmlns="http://www.w3.org/2000/svg">
<mask id="mask0_1_92" style="mask-type:alpha" maskUnits="userSpaceOnUse" x="0" y="0" width="40" height="40">
<rect width="40" height="40" fill="#D9D9D9"/>
</mask>
<g mask="url(#mask0_1_92)">
<path d="M6.66665 33.3334C5.74998 33.3334 4.96526 33.007 4.31248 32.3542C3.6597 31.7015 3.33331 30.9167 3.33331 30.0001V10.0001C3.33331 9.08341 3.6597 8.29869 4.31248 7.64591C4.96526 6.99314 5.74998 6.66675 6.66665 6.66675H33.3333C34.25 6.66675 35.0347 6.99314 35.6875 7.64591C36.3403 8.29869 36.6666 9.08341 36.6666 10.0001V18.6251C36.6666 19.014 36.5347 19.3404 36.2708 19.6042C36.0069 19.8681 35.6805 20.0001 35.2916 20.0001C34.4583 20.0001 33.6389 20.0765 32.8333 20.2292C32.0278 20.382 31.3333 20.7501 30.75 21.3334L24.9166 27.2084L23.6666 26.0001C22.6944 25.0279 21.5278 24.5487 20.1666 24.5626C18.8055 24.5765 17.6389 25.0695 16.6666 26.0417C15.7778 26.9306 15.2847 27.8959 15.1875 28.9376C15.0903 29.9792 15.3055 30.9862 15.8333 31.9584C16 32.264 16.0069 32.5695 15.8541 32.8751C15.7014 33.1806 15.4722 33.3334 15.1666 33.3334H6.66665ZM6.66665 13.3334V20.0001H33.3333V13.3334H6.66665ZM24.9166 31.9167L33.125 23.7084C33.4583 23.3751 33.8541 23.2154 34.3125 23.2292C34.7708 23.2431 35.1666 23.4167 35.5 23.7501C35.8055 24.0834 35.9653 24.4723 35.9791 24.9167C35.993 25.3612 35.8333 25.7501 35.5 26.0834L26.0833 35.5001C25.9166 35.6667 25.7361 35.7917 25.5416 35.8751C25.3472 35.9584 25.1389 36.0001 24.9166 36.0001C24.6944 36.0001 24.4861 35.9584 24.2916 35.8751C24.0972 35.7917 23.9166 35.6667 23.75 35.5001L19 30.7501C18.6944 30.4445 18.5347 30.0626 18.5208 29.6042C18.5069 29.1459 18.6666 28.7501 19 28.4167C19.3055 28.1112 19.6875 27.9584 20.1458 27.9584C20.6041 27.9584 21 28.1112 21.3333 28.4167L24.9166 31.9167Z" fill="#090914"/>
</g>
</svg>
