<svg width="40" height="40" viewBox="0 0 40 40" fill="none" xmlns="http://www.w3.org/2000/svg">
<mask id="mask0_1_49" style="mask-type:alpha" maskUnits="userSpaceOnUse" x="0" y="0" width="40" height="40">
<rect width="40" height="40" fill="#D9D9D9"/>
</mask>
<g mask="url(#mask0_1_49)">
<path d="M8.33335 31.6666H25C25.4722 31.6666 25.8681 31.8263 26.1875 32.1458C26.507 32.4652 26.6667 32.8611 26.6667 33.3333C26.6667 33.8055 26.507 34.2013 26.1875 34.5208C25.8681 34.8402 25.4722 35 25 35H8.33335C7.86113 35 7.4653 34.8402 7.14585 34.5208C6.82641 34.2013 6.66669 33.8055 6.66669 33.3333C6.66669 32.8611 6.82641 32.4652 7.14585 32.1458C7.4653 31.8263 7.86113 31.6666 8.33335 31.6666ZM13.7084 24.5416L9.00002 19.8333C8.36113 19.1944 8.03474 18.4097 8.02085 17.4791C8.00696 16.5486 8.31946 15.7638 8.95835 15.125L10.1667 13.9166L19.6667 23.3333L18.4584 24.5416C17.8195 25.1805 17.0278 25.5 16.0834 25.5C15.1389 25.5 14.3472 25.1805 13.7084 24.5416ZM26.6667 16.3333L17.25 6.83329L18.4584 5.62496C19.0972 4.98607 19.882 4.67357 20.8125 4.68745C21.7431 4.70134 22.5278 5.02773 23.1667 5.66662L27.875 10.375C28.5139 11.0138 28.8334 11.8055 28.8334 12.75C28.8334 13.6944 28.5139 14.4861 27.875 15.125L26.6667 16.3333ZM33.1667 32.1666L12.5834 11.5833L14.9167 9.24996L35.5 29.8333C35.8056 30.1388 35.9584 30.5277 35.9584 31C35.9584 31.4722 35.8056 31.8611 35.5 32.1666C35.1945 32.4722 34.8056 32.625 34.3334 32.625C33.8611 32.625 33.4722 32.4722 33.1667 32.1666Z" fill="#090914"/>
</g>
</svg>
