<svg width="40" height="40" viewBox="0 0 40 40" fill="none" xmlns="http://www.w3.org/2000/svg">
<mask id="mask0_1_29" style="mask-type:alpha" maskUnits="userSpaceOnUse" x="0" y="0" width="40" height="40">
<rect width="40" height="40" fill="#D9D9D9"/>
</mask>
<g mask="url(#mask0_1_29)">
<path d="M11.6667 38.3334C10.75 38.3334 9.96532 38.007 9.31254 37.3543C8.65976 36.7015 8.33337 35.9168 8.33337 35.0001V5.00008C8.33337 4.08341 8.65976 3.29869 9.31254 2.64591C9.96532 1.99314 10.75 1.66675 11.6667 1.66675H28.3334C29.25 1.66675 30.0348 1.99314 30.6875 2.64591C31.3403 3.29869 31.6667 4.08341 31.6667 5.00008V35.0001C31.6667 35.9168 31.3403 36.7015 30.6875 37.3543C30.0348 38.007 29.25 38.3334 28.3334 38.3334H11.6667ZM20 23.3334C21.5 23.3334 22.9514 23.507 24.3542 23.8542C25.757 24.2015 27.0834 24.6945 28.3334 25.3334V10.0001H11.6667V25.3334C12.9167 24.6945 14.2431 24.2015 15.6459 23.8542C17.0487 23.507 18.5 23.3334 20 23.3334ZM20 21.6667C18.6112 21.6667 17.4306 21.1806 16.4584 20.2084C15.4862 19.2362 15 18.0556 15 16.6667C15 15.2779 15.4862 14.0973 16.4584 13.1251C17.4306 12.1529 18.6112 11.6667 20 11.6667C21.3889 11.6667 22.5695 12.1529 23.5417 13.1251C24.5139 14.0973 25 15.2779 25 16.6667C25 18.0556 24.5139 19.2362 23.5417 20.2084C22.5695 21.1806 21.3889 21.6667 20 21.6667Z" fill="#090914"/>
</g>
</svg>
