<svg width="41" height="40" viewBox="0 0 41 40" fill="none" xmlns="http://www.w3.org/2000/svg">
<mask id="mask0_1_78" style="mask-type:alpha" maskUnits="userSpaceOnUse" x="0" y="0" width="41" height="40">
<rect x="0.25" width="40" height="40" fill="#D9D9D9"/>
</mask>
<g mask="url(#mask0_1_78)">
<path d="M35.2494 26.6668V16.8335L21.8327 24.1252C21.3327 24.4029 20.8049 24.5418 20.2494 24.5418C19.6938 24.5418 19.1661 24.4029 18.6661 24.1252L4.58272 16.4585C4.27717 16.2918 4.06189 16.0835 3.93689 15.8335C3.81189 15.5835 3.74939 15.3057 3.74939 15.0002C3.74939 14.6946 3.81189 14.4168 3.93689 14.1668C4.06189 13.9168 4.27717 13.7085 4.58272 13.5418L18.6661 5.87516C18.9161 5.73627 19.173 5.63211 19.4369 5.56266C19.7008 5.49322 19.9716 5.4585 20.2494 5.4585C20.5272 5.4585 20.798 5.49322 21.0619 5.56266C21.3258 5.63211 21.5827 5.73627 21.8327 5.87516L37.7077 14.5418C37.9855 14.6807 38.2008 14.8821 38.3536 15.146C38.5063 15.4099 38.5827 15.6946 38.5827 16.0002V26.6668C38.5827 27.1391 38.423 27.5349 38.1036 27.8543C37.7841 28.1738 37.3883 28.3335 36.9161 28.3335C36.4438 28.3335 36.048 28.1738 35.7286 27.8543C35.4091 27.5349 35.2494 27.1391 35.2494 26.6668ZM18.6661 34.1252L10.3327 29.6252C9.77717 29.3196 9.34661 28.9029 9.04106 28.3752C8.7355 27.8474 8.58272 27.2779 8.58272 26.6668V20.3335L18.6661 25.7918C19.1661 26.0696 19.6938 26.2085 20.2494 26.2085C20.8049 26.2085 21.3327 26.0696 21.8327 25.7918L31.9161 20.3335V26.6668C31.9161 27.2779 31.7633 27.8474 31.4577 28.3752C31.1522 28.9029 30.7216 29.3196 30.1661 29.6252L21.8327 34.1252C21.5827 34.2641 21.3258 34.3682 21.0619 34.4377C20.798 34.5071 20.5272 34.5418 20.2494 34.5418C19.9716 34.5418 19.7008 34.5071 19.4369 34.4377C19.173 34.3682 18.9161 34.2641 18.6661 34.1252Z" fill="black"/>
</g>
</svg>
