<svg width="40" height="40" viewBox="0 0 40 40" fill="none" xmlns="http://www.w3.org/2000/svg">
<mask id="mask0_1_102" style="mask-type:alpha" maskUnits="userSpaceOnUse" x="0" y="0" width="40" height="40">
<rect width="40" height="40" fill="#D9D9D9"/>
</mask>
<g mask="url(#mask0_1_102)">
<path d="M20.0005 6.66667C19.0838 6.66667 18.2991 6.34028 17.6463 5.6875C16.9935 5.03472 16.6671 4.25 16.6671 3.33333C16.6671 2.41667 16.9935 1.63194 17.6463 0.979167C18.2991 0.326389 19.0838 0 20.0005 0C20.9171 0 21.7018 0.326389 22.3546 0.979167C23.0074 1.63194 23.3338 2.41667 23.3338 3.33333C23.3338 4.25 23.0074 5.03472 22.3546 5.6875C21.7018 6.34028 20.9171 6.66667 20.0005 6.66667ZM15.0005 30V11.6667C13.6393 11.5556 12.2643 11.4028 10.8755 11.2083C9.48656 11.0139 8.12545 10.7639 6.79212 10.4583C6.3199 10.3472 5.93795 10.0833 5.64629 9.66667C5.35462 9.25 5.27823 8.80556 5.41712 8.33333C5.55601 7.86111 5.84767 7.51389 6.29212 7.29167C6.73656 7.06944 7.20879 7.01389 7.70879 7.125C9.65323 7.54167 11.6741 7.84722 13.7713 8.04167C15.8685 8.23611 17.9449 8.33333 20.0005 8.33333C22.056 8.33333 24.1324 8.23611 26.2296 8.04167C28.3268 7.84722 30.3477 7.54167 32.2921 7.125C32.7921 7.01389 33.2643 7.06944 33.7088 7.29167C34.1532 7.51389 34.4449 7.86111 34.5838 8.33333C34.7227 8.80556 34.6463 9.25 34.3546 9.66667C34.063 10.0833 33.681 10.3472 33.2088 10.4583C31.8755 10.7639 30.5143 11.0139 29.1255 11.2083C27.7366 11.4028 26.3616 11.5556 25.0005 11.6667V30C25.0005 30.4722 24.8407 30.8681 24.5213 31.1875C24.2018 31.5069 23.806 31.6667 23.3338 31.6667C22.8616 31.6667 22.4657 31.5069 22.1463 31.1875C21.8268 30.8681 21.6671 30.4722 21.6671 30V21.6667H18.3338V30C18.3338 30.4722 18.1741 30.8681 17.8546 31.1875C17.5352 31.5069 17.1393 31.6667 16.6671 31.6667C16.1949 31.6667 15.7991 31.5069 15.4796 31.1875C15.1602 30.8681 15.0005 30.4722 15.0005 30ZM13.3338 40C12.8616 40 12.4657 39.8403 12.1463 39.5208C11.8268 39.2014 11.6671 38.8056 11.6671 38.3333C11.6671 37.8611 11.8268 37.4653 12.1463 37.1458C12.4657 36.8264 12.8616 36.6667 13.3338 36.6667C13.806 36.6667 14.2018 36.8264 14.5213 37.1458C14.8407 37.4653 15.0005 37.8611 15.0005 38.3333C15.0005 38.8056 14.8407 39.2014 14.5213 39.5208C14.2018 39.8403 13.806 40 13.3338 40ZM20.0005 40C19.5282 40 19.1324 39.8403 18.813 39.5208C18.4935 39.2014 18.3338 38.8056 18.3338 38.3333C18.3338 37.8611 18.4935 37.4653 18.813 37.1458C19.1324 36.8264 19.5282 36.6667 20.0005 36.6667C20.4727 36.6667 20.8685 36.8264 21.188 37.1458C21.5074 37.4653 21.6671 37.8611 21.6671 38.3333C21.6671 38.8056 21.5074 39.2014 21.188 39.5208C20.8685 39.8403 20.4727 40 20.0005 40ZM26.6671 40C26.1949 40 25.7991 39.8403 25.4796 39.5208C25.1602 39.2014 25.0005 38.8056 25.0005 38.3333C25.0005 37.8611 25.1602 37.4653 25.4796 37.1458C25.7991 36.8264 26.1949 36.6667 26.6671 36.6667C27.1393 36.6667 27.5352 36.8264 27.8546 37.1458C28.1741 37.4653 28.3338 37.8611 28.3338 38.3333C28.3338 38.8056 28.1741 39.2014 27.8546 39.5208C27.5352 39.8403 27.1393 40 26.6671 40Z" fill="#090914"/>
</g>
</svg>
