<svg width="197" height="196" viewBox="0 0 197 196" fill="none" xmlns="http://www.w3.org/2000/svg">
<path d="M160.156 131.003L124.176 126.427C123.274 126.312 122.471 127.002 122.449 127.912L121.562 164.171C121.527 165.615 119.698 166.215 118.815 165.073L96.6079 136.395C96.0517 135.676 94.9948 135.596 94.3361 136.223L68.0704 161.236C67.025 162.232 65.3077 161.363 65.4895 159.932L70.0651 123.951C70.1797 123.048 69.4894 122.246 68.5806 122.223L32.321 121.336C30.8769 121.3 30.2772 119.472 31.4193 118.588L60.0971 96.3813C60.8162 95.8251 60.896 94.7682 60.2687 94.1105L35.2562 67.8438C34.26 66.7984 35.1288 65.0812 36.5617 65.2637L72.5426 69.8393C73.4452 69.9539 74.2476 69.2635 74.2698 68.354L75.1567 32.0945C75.1918 30.6504 77.0205 30.0507 77.904 31.1928L100.11 59.8699C100.666 60.589 101.723 60.6687 102.382 60.0421L128.647 35.029C129.693 34.0328 131.41 34.9017 131.228 36.3335L126.653 72.3144C126.538 73.217 127.229 74.0194 128.137 74.0426L164.397 74.9295C165.841 74.9647 166.441 76.7933 165.299 77.6769L136.621 99.8838C135.902 100.44 135.822 101.497 136.449 102.156L161.462 128.421C162.457 129.469 161.588 131.185 160.156 131.003Z" fill="#CD4A11" stroke="#090914" stroke-width="1.19528" stroke-miterlimit="10" stroke-linecap="round" stroke-linejoin="round"/>
<path d="M85.8751 94.0197C86.2004 94.9529 85.7087 95.9722 84.7754 96.2975C83.8422 96.6228 82.8228 96.1311 82.4975 95.1979C82.1723 94.2647 82.664 93.2453 83.5973 92.92C84.5295 92.594 85.5491 93.0874 85.8751 94.0197Z" fill="white"/>
<path d="M108.956 85.9706C109.281 86.9038 108.789 87.9225 107.856 88.2485C106.923 88.5738 105.904 88.0811 105.578 87.1488C105.253 86.2156 105.745 85.1962 106.678 84.8709C107.61 84.5449 108.631 85.0374 108.956 85.9706Z" fill="white"/>
<path d="M99.3778 95.6247C99.703 96.5579 99.2113 97.5773 98.2781 97.9026C97.3448 98.2279 96.3255 97.7361 96.0002 96.8029C95.6749 95.8697 96.1666 94.8503 97.0998 94.525C98.0331 94.1997 99.0534 94.6921 99.3778 95.6247Z" fill="white"/>
<path d="M90.6264 106.647C94.0324 107.886 97.8839 107.857 101.271 106.567C104.657 105.276 107.551 102.734 109.269 99.5421" stroke="white" stroke-width="1.19528" stroke-miterlimit="10"/>
</svg>
